G04 MADE WITH FRITZING*
G04 WWW.FRITZING.ORG*
G04 DOUBLE SIDED*
G04 HOLES PLATED*
G04 CONTOUR ON CENTER OF CONTOUR VECTOR*
%ASAXBY*%
%FSLAX23Y23*%
%MOIN*%
%OFA0B0*%
%SFA1.0B1.0*%
%ADD10C,0.075000*%
%ADD11C,0.078000*%
%ADD12R,0.061024X0.023622*%
%ADD13R,0.070866X0.047244*%
%ADD14R,0.075000X0.075000*%
%ADD15R,0.055118X0.059055*%
%ADD16C,0.024000*%
%LNCOPPER1*%
G90*
G70*
G54D10*
X2401Y1917D03*
X2401Y2017D03*
X2601Y817D03*
X2601Y1217D03*
X2601Y1417D03*
X2601Y1817D03*
G54D11*
X2401Y1617D03*
X2501Y1617D03*
X2401Y1517D03*
X2501Y1517D03*
X2401Y1417D03*
X2501Y1417D03*
X2401Y1317D03*
X2501Y1317D03*
X2401Y1217D03*
X2501Y1217D03*
X2401Y1117D03*
X2501Y1117D03*
X2401Y1017D03*
X2501Y1017D03*
G54D12*
X701Y1078D03*
X701Y1117D03*
X701Y1157D03*
X701Y1196D03*
X701Y1235D03*
X701Y1275D03*
X701Y1314D03*
X701Y1354D03*
G54D13*
X602Y1405D03*
X602Y1027D03*
G54D14*
X2401Y1917D03*
G54D15*
X921Y1917D03*
X1001Y1917D03*
X921Y517D03*
X1001Y517D03*
G54D16*
X1402Y1617D02*
X902Y1354D01*
D02*
X902Y1354D02*
X726Y1354D01*
D02*
X2371Y1617D02*
X1402Y1617D01*
D02*
X1402Y1518D02*
X1001Y1318D01*
D02*
X1001Y1318D02*
X902Y1275D01*
D02*
X902Y1275D02*
X726Y1275D01*
D02*
X2371Y1517D02*
X1402Y1518D01*
D02*
X1001Y1218D02*
X902Y1196D01*
D02*
X1401Y1318D02*
X1001Y1218D01*
D02*
X902Y1196D02*
X726Y1196D01*
D02*
X2371Y1317D02*
X1401Y1318D01*
D02*
X1402Y1218D02*
X902Y1157D01*
D02*
X902Y1157D02*
X726Y1157D01*
D02*
X2371Y1217D02*
X1402Y1218D01*
D02*
X902Y1117D02*
X726Y1117D01*
D02*
X2371Y1117D02*
X902Y1117D01*
D02*
X2371Y1017D02*
X1001Y1017D01*
D02*
X1001Y1017D02*
X902Y1078D01*
D02*
X902Y1078D02*
X726Y1078D01*
D02*
X2701Y1518D02*
X2701Y1918D01*
D02*
X2701Y1918D02*
X2430Y1917D01*
D02*
X2531Y1517D02*
X2701Y1518D01*
D02*
X902Y1317D02*
X402Y1316D01*
D02*
X402Y1316D02*
X402Y2017D01*
D02*
X402Y2017D02*
X2373Y2017D01*
D02*
X726Y1315D02*
X902Y1317D01*
D02*
X1023Y1917D02*
X2373Y1917D01*
D02*
X2701Y1918D02*
X2430Y1917D01*
D02*
X2701Y1518D02*
X2701Y1918D01*
D02*
X1023Y517D02*
X2701Y517D01*
D02*
X2701Y517D02*
X2701Y1518D01*
D02*
X2502Y1817D02*
X2573Y1817D01*
D02*
X1000Y1817D02*
X2502Y1817D01*
D02*
X940Y1893D02*
X1000Y1817D01*
D02*
X2531Y1017D02*
X2602Y1018D01*
D02*
X1000Y618D02*
X2602Y618D01*
D02*
X940Y541D02*
X1000Y618D01*
D02*
X2602Y618D02*
X2601Y789D01*
D02*
X2471Y1617D02*
X2431Y1617D01*
D02*
X2471Y1517D02*
X2431Y1517D01*
D02*
X2471Y1317D02*
X2431Y1317D01*
D02*
X2431Y1117D02*
X2471Y1117D01*
D02*
X2471Y1017D02*
X2431Y1017D01*
D02*
X2471Y1417D02*
X2431Y1417D01*
D02*
X2471Y1217D02*
X2431Y1217D01*
D02*
X2371Y1417D02*
X1401Y1417D01*
D02*
X1401Y1417D02*
X902Y1235D01*
D02*
X902Y1235D02*
X726Y1235D01*
D02*
X2531Y1017D02*
X2602Y1018D01*
D02*
X2602Y1018D02*
X2601Y1189D01*
D02*
X2601Y1246D02*
X2601Y1389D01*
G04 End of Copper1*
M02*